# xmcd
#
# Track frame offsets: 
#        182
#        14762
#        29690
#        39192
#        53925
#        65480
#        80612
#        94802
#        108687
#        125670
#        139547
#        149997
#
# Disc length: 2203 seconds
#
# Revision: 0
# Processed by: cddbd v1.5.1PL0 Copyright (c) Steve Scherf et al.
# Submitted via: ExactAudioCopy v0.95a5
#
DISCID=b808990c
DTITLE=Wes Homner and Mountain Therapy - The Land Above
DYEAR=1993
DGENRE=Bluegrass
TTITLE0=Coming Down
TTITLE1=Thank You , LORD
TTITLE2=The Land Above
TTITLE3=Rock Me Gently
TTITLE4=Leaning On The Everlasting Arms
TTITLE5=Always There
TTITLE6=I'm Going Home
TTITLE7=Look To GOD And Pray
TTITLE8=Dividing Line
TTITLE9=Farther Along
TTITLE10=Angel Band
TTITLE11=It Won't Be Long Now
EXTD=
EXTT0=
EXTT1=
EXTT2=
EXTT3=
EXTT4=
EXTT5=
EXTT6=
EXTT7=
EXTT8=
EXTT9=
EXTT10=
EXTT11=
PLAYORDER=
